<?xml version="1.0" encoding="UTF-8" standalone="no"?>
<!-- Created with Inkscape (http://www.inkscape.org/) -->

<svg
   version="1.1"
   id="svg1"
   width="1280"
   height="640"
   viewBox="0 0 345.94595 172.97297"
   xml:space="preserve"
   xmlns:xlink="http://www.w3.org/1999/xlink"
   xmlns="http://www.w3.org/2000/svg"
   xmlns:svg="http://www.w3.org/2000/svg"
   xmlns:rdf="http://www.w3.org/1999/02/22-rdf-syntax-ns#"
   xmlns:cc="http://creativecommons.org/ns#"
   xmlns:dc="http://purl.org/dc/elements/1.1/"><title
     id="title28">XSMP Logo</title><defs
     id="defs1"><linearGradient
       id="linearGradient3"><stop
         style="stop-color:#0077c8;stop-opacity:1;"
         offset="0"
         id="stop3" /><stop
         style="stop-color:#004676;stop-opacity:1;"
         offset="1"
         id="stop4" /></linearGradient><linearGradient
       id="linearGradient1"><stop
         style="stop-color:#726f6f;stop-opacity:1;"
         offset="0"
         id="stop1" /><stop
         style="stop-color:#d1cece;stop-opacity:1;"
         offset="1"
         id="stop2" /></linearGradient><linearGradient
       xlink:href="#linearGradient1"
       id="linearGradient2"
       x1="14"
       y1="78"
       x2="335.89999"
       y2="78"
       gradientUnits="userSpaceOnUse" /><linearGradient
       xlink:href="#linearGradient3"
       id="linearGradient4"
       x1="27.837837"
       y1="77.999779"
       x2="122.32162"
       y2="77.999779"
       gradientUnits="userSpaceOnUse" /><linearGradient
       xlink:href="#linearGradient3"
       id="linearGradient5"
       gradientUnits="userSpaceOnUse"
       x1="27.837837"
       y1="77.999779"
       x2="122.32162"
       y2="77.999779" /><linearGradient
       xlink:href="#linearGradient3"
       id="linearGradient6"
       gradientUnits="userSpaceOnUse"
       x1="27.837837"
       y1="77.999779"
       x2="122.32162"
       y2="77.999779" /><linearGradient
       xlink:href="#linearGradient1"
       id="linearGradient7"
       gradientUnits="userSpaceOnUse"
       x1="14"
       y1="78"
       x2="335.89999"
       y2="78" /><linearGradient
       xlink:href="#linearGradient1"
       id="linearGradient8"
       gradientUnits="userSpaceOnUse"
       x1="14"
       y1="78"
       x2="335.89999"
       y2="78" /><linearGradient
       xlink:href="#linearGradient1"
       id="linearGradient9"
       gradientUnits="userSpaceOnUse"
       x1="14"
       y1="78"
       x2="335.89999"
       y2="78" /><linearGradient
       xlink:href="#linearGradient1"
       id="linearGradient10"
       gradientUnits="userSpaceOnUse"
       x1="14"
       y1="78"
       x2="335.89999"
       y2="78" /><linearGradient
       xlink:href="#linearGradient1"
       id="linearGradient11"
       gradientUnits="userSpaceOnUse"
       x1="14"
       y1="78"
       x2="335.89999"
       y2="78" /><linearGradient
       xlink:href="#linearGradient1"
       id="linearGradient12"
       gradientUnits="userSpaceOnUse"
       x1="14"
       y1="78"
       x2="335.89999"
       y2="78" /></defs><g
     id="g1"
     transform="translate(0,8.1081076)"><g
       id="blue"
       style="fill:url(#linearGradient4);fill-opacity:1"><path
         d="m 27.837838,19 16.5,38.7 15.5,-22.7 h 9.2 l -5.6,-16.000437 z"
         id="x_top_left"
         style="fill:url(#linearGradient5)" /><path
         d="m 90.421623,121 h -9.5 l 6.2,16 h 35.199997 l -16.5,-39.2 z"
         id="x_bottom_right"
         style="fill:url(#linearGradient6)" /></g><g
       id="black"
       style="display:inline;fill:url(#linearGradient2);fill-opacity:1"
       transform="translate(-2.1621621,0.54054054)"><path
         d="m 106,19 -9.7,16 h 33.1 L 141,19 Z"
         id="x_top_right"
         style="fill:url(#linearGradient7)" /><path
         d="M 74,42 H 66 L 50.2,65.7 55.8,78.2 30,114 H 63.6 L 74.5,96.6 80.8,114 h 8 L 104.9,90.6 99.8,78.4 124.8,42 H 90.6 L 80,58.8 Z"
         id="x_middle"
         style="fill:url(#linearGradient8)" /><path
         d="M 25,121 14,137 H 48.7 L 59,121 Z"
         id="x_bottom_left"
         style="fill:url(#linearGradient9)" /><path
         d="m 162.7,28.5 -15.2,15 V 72 l 15.2,15.3 H 182 l 5.5,5.6 V 103 l -5.5,5.1 H 171.5 L 166.3,103 V 96.4 H 147.5 V 112 l 15.2,15 H 191 l 15,-15 V 83.6 L 191,68.8 h -19.5 l -5.3,-5.5 V 52.6 l 5.3,-4.9 H 182 l 5.5,5.1 v 7 H 206 V 43.5 l -15,-15 z"
         id="s"
         style="fill:url(#linearGradient10)" /><path
         d="M 231,127 H 212 V 28.5 h 19 L 241.5,59.7 252,28.5 h 19 V 127 H 252 V 88 L 241.5,118 231,88 Z"
         id="m"
         style="fill:url(#linearGradient11)" /><path
         id="p"
         d="m 278,28.5 c 0.0469,32.816405 -0.0469,65.683595 0,98.5 h 18 c 0.0677,-12.20182 -0.0677,-24.19817 0,-36.4 8.06576,0.05534 16.63424,-0.05534 24.7,0 5.20768,-5.158854 9.99232,-10.441146 15.2,-15.6 V 44 L 320.7,28.5 c -14.33529,-0.03257 -42.7,0 -42.7,0 z m 34.1,19.1 5.4,5.2 c -0.005,4.741537 0.005,9.458463 0,14.2 -1.65169,1.605469 -3.74831,3.194531 -5.4,4.8 -5.45963,-0.01107 -10.64037,0.01107 -16.1,0 0.0137,-8.067057 -0.0137,-16.132943 0,-24.2 z"
         style="fill:url(#linearGradient12)" /></g></g><metadata
     id="metadata28"><rdf:RDF><cc:Work
         rdf:about=""><dc:title>XSMP Logo</dc:title><dc:creator><cc:Agent><dc:title>ydaveluy</dc:title></cc:Agent></dc:creator></cc:Work></rdf:RDF></metadata></svg>
